<svg xmlns="http://www.w3.org/2000/svg" viewBox="0 0 32 32"><path fill="#ef4a4c" d="M25.5 29.5h-19a1 1 0 0 1-1-1v-13a1 1 0 0 1 1-1h19a1 1 0 0 1 1 1v13a1 1 0 0 1-1 1z"/><path fill="#e0313f" d="M23.5 14.5h-18v2h15a3 3 0 0 1 3 3v10h2a1 1 0 0 0 1-1v-14h-3z"/><path fill="#ef4a4c" d="M26.5 14.5h-21a1 1 0 0 1-1-1v-5a1 1 0 0 1 1-1h21a1 1 0 0 1 1 1v5a1 1 0 0 1-1 1z"/><path fill="#fecb5b" d="M12.5 7.5h-3a2 2 0 0 0-2 2v2l1.5-1 1.5 1v-2a2 2 0 0 1 2-2zM19.5 7.5h3a2 2 0 0 1 2 2v2l-1.5-1-1.5 1v-2a2 2 0 0 0-2-2z"/><path fill="#f8b545" d="M9.5 8h1.69c.352-.307.806-.5 1.31-.5h-3a2 2 0 0 0-2 2v.5a2 2 0 0 1 2-2zM22.5 7.5h-3c.504 0 .959.193 1.31.5h1.69a2 2 0 0 1 2 2v-.5a2 2 0 0 0-2-2z"/><path fill="#fecb5b" d="M13.5 7.5h5v7h-5zM14.5 14.5h3v15h-3z"/><path fill="#f8b545" d="M14.5 14.5h3v2h-3z"/><path fill="#fecb5b" d="M21.802 2.508C20.474 2.61 19.5 3.822 19.5 5.154V5.5a1 1 0 0 1-1 1v.25h1.286c.965 0 1.75-.785 1.75-1.75a.25.25 0 0 1 .5 0c0 1.24-1.01 2.25-2.25 2.25H18.5v.25h3.346c1.332 0 2.544-.974 2.646-2.302a2.499 2.499 0 0 0-2.69-2.69z"/><path fill="#fecb5b" d="M21.802 2.508C20.474 2.61 19.5 3.822 19.5 5.154V5.5a1 1 0 0 1-1 1v.25h1.286c.965 0 1.75-.785 1.75-1.75a.25.25 0 0 1 .5 0c0 1.24-1.01 2.25-2.25 2.25H18.5v.25h3.346c1.332 0 2.544-.974 2.646-2.302a2.499 2.499 0 0 0-2.69-2.69z"/><path fill="#f8b545" d="M22.089 2.517a2.489 2.489 0 0 1 1.404 2.434c-.102 1.328-1.314 2.302-2.646 2.302H18.5V7.5h3.346c1.332 0 2.544-.974 2.646-2.302a2.49 2.49 0 0 0-2.403-2.681z"/><path fill="#fecb5b" d="M12.214 7.25c-1.24 0-2.25-1.01-2.25-2.25a.25.25 0 0 1 .5 0c0 .965.785 1.75 1.75 1.75H13.5V6.5a1 1 0 0 1-1-1v-.346c0-1.332-.974-2.544-2.302-2.646a2.499 2.499 0 0 0-2.69 2.69C7.61 6.526 8.822 7.5 10.154 7.5H13.5v-.25h-1.286z"/><circle cx="7.5" cy="27.5" r=".5" fill="#004463"/><circle cx="9.5" cy="27.5" r=".5" fill="#004463"/><circle cx="11.5" cy="27.5" r=".5" fill="#004463"/><path fill="#fecb5b" d="M18.5 7.5h-5v-1a1 1 0 0 1 1-1h3a1 1 0 0 1 1 1v1z"/><path fill="#f8b545" d="M21.792 4.75h-.006l.006.003zM19.786 6.75c.191 0 .372-.038.544-.095.025-.008.052-.014.076-.024.162-.062.311-.148.446-.253l.063-.052c.133-.114.252-.244.346-.393l.017-.032c.096-.16.172-.334.214-.521.008-.044.012-.09.02-.135.011-.08.024-.161.024-.245a.25.25 0 0 1 .25-.25h-.506a.25.25 0 0 0-.25.25c0 .965-.785 1.75-1.75 1.75h.506zM9.911 2.517a2.488 2.488 0 0 0-1.403 2.434c.102 1.328 1.314 2.302 2.646 2.302H13.5V7.5h-3.346c-1.332 0-2.544-.974-2.646-2.302a2.49 2.49 0 0 1 2.403-2.681z"/><path fill="#f8b545" d="M10.208 4.75h.006l-.006.003zM12.214 6.75c-.191 0-.372-.038-.544-.095-.025-.008-.052-.014-.076-.024a1.737 1.737 0 0 1-.446-.253l-.063-.052a1.754 1.754 0 0 1-.346-.393l-.017-.032a1.768 1.768 0 0 1-.214-.521c-.008-.044-.012-.09-.02-.135-.011-.08-.024-.161-.024-.245a.25.25 0 0 0-.25-.25h.506a.25.25 0 0 1 .25.25c0 .965.785 1.75 1.75 1.75h-.506z"/></svg>