<svg xmlns="http://www.w3.org/2000/svg" width="32" height="32"><g stroke="#373748"><path fill="#00d1b6" stroke-linecap="round" stroke-linejoin="round" stroke-width=".438" d="M143.7 1034.235v-.28c0-.27-.21-.51-.45-.63a70.195 70.195 0 0 0-2.101-1.09l-.256-.126c-.15.055-.297.127-.508.134-.24-.018-.352-.091-.523-.142l-.236.115c-.09.06-.958.45-2.246 1.169-.24.15-.33.39-.33.689v.178" transform="matrix(-2.28256 0 0 2.28003 328.502 -2330.234)"/><path fill="none" stroke-linecap="round" stroke-linejoin="round" stroke-width=".438" d="M140.392 1028.82c.636 0 1.149.513 1.149 1.15v1.124c0 .636-.655 1.148-1.149 1.148-.493 0-1.148-.512-1.148-1.148v-1.125c0-.636.512-1.148 1.148-1.148zm.757 3.415-.256-.126c-.15.055-.297.127-.508.134-.24-.018-.352-.091-.523-.142l-.236.115" transform="matrix(-2.28256 0 0 2.28003 328.502 -2330.234)"/><path fill="#00d1b6" stroke-linecap="round" stroke-linejoin="round" stroke-width=".438" d="M143.7 1034.235v-.28c0-.27-.21-.51-.45-.63a70.195 70.195 0 0 0-2.101-1.09l-.256-.126c-.15.055-.297.127-.508.134-.24-.018-.352-.091-.523-.142l-.236.115c-.09.06-.958.45-2.246 1.169-.24.15-.33.39-.33.689v.178" transform="matrix(-2.28256 0 0 2.28003 344.323 -2330.234)"/><path fill="none" stroke-linecap="round" stroke-linejoin="round" stroke-width=".438" d="M140.392 1028.82c.636 0 1.149.513 1.149 1.15v1.124c0 .636-.655 1.148-1.149 1.148-.493 0-1.148-.512-1.148-1.148v-1.125c0-.636.512-1.148 1.148-1.148zm.757 3.415-.256-.126c-.15.055-.297.127-.508.134-.24-.018-.352-.091-.523-.142l-.236.115" transform="matrix(-2.28256 0 0 2.28003 344.323 -2330.234)"/><path fill="#ff5a67" stroke-width="1.146" d="M411.467 1111.58h10.48c1.12 0 2.021.9 2.021 2.02v5.015c0 1.119-.901 2.02-2.02 2.02h-6.573l-2.254 2.62-.094-2.62h-1.56c-1.119 0-2.02-.901-2.02-2.02v-5.015c0-1.12.901-2.02 2.02-2.02z" transform="matrix(.8729 0 0 .87193 -339.43 -965.725)"/><g stroke-linecap="round" stroke-linejoin="round" stroke-width=".37"><path fill="#ff5a67" d="M143.7 1034.235v-.28c0-.27-.21-.51-.45-.63a70.195 70.195 0 0 0-2.101-1.09l-.256-.126c-.15.055-.297.127-.508.134-.24-.018-.352-.091-.523-.142l-.236.115c-.09.06-.958.45-2.246 1.169-.24.15-.33.39-.33.689v.178" transform="matrix(-2.704 0 0 2.701 395.737 -2765.671)"/><path fill="none" d="M140.392 1028.82c.636 0 1.149.513 1.149 1.15v1.124c0 .636-.655 1.148-1.149 1.148-.493 0-1.148-.512-1.148-1.148v-1.125c0-.636.512-1.148 1.148-1.148zm.757 3.415-.256-.126c-.15.055-.297.127-.508.134-.24-.018-.352-.091-.523-.142l-.236.115" transform="matrix(-2.704 0 0 2.701 395.737 -2765.671)"/></g></g></svg>